<svg width="24" height="24" viewBox="0 0 24 24" fill="#AAAAAA" xmlns="http://www.w3.org/2000/svg">
<path fill-rule="evenodd" clip-rule="evenodd" d="M24 16C24 11.5817 20.4183 8 16 8C16 3.58172 12.4183 0 8 0H1.61C1.04051 0 0.755764 0 0.539026 0.112587C0.356382 0.207462 0.207462 0.356382 0.112587 0.539026C0 0.755764 0 1.04051 0 1.61V8C0 12.4183 3.58172 16 8 16C8 20.4183 11.5817 24 16 24H22.39C22.9595 24 23.2442 24 23.461 23.8874C23.6436 23.7925 23.7925 23.6436 23.8874 23.461C24 23.2442 24 22.9595 24 22.39V16ZM4.75 5.5H10.75C11.1642 5.5 11.5 5.83579 11.5 6.25C11.5 6.66421 11.1642 7 10.75 7H4.75C4.33579 7 4 6.66421 4 6.25C4 5.83579 4.33579 5.5 4.75 5.5ZM7.75 8.5H4.75C4.33579 8.5 4 8.83579 4 9.25C4 9.66421 4.33579 10 4.75 10H7.75C8.16421 10 8.5 9.66421 8.5 9.25C8.5 8.83579 8.16421 8.5 7.75 8.5ZM13.25 14H19.25C19.6642 14 20 14.3358 20 14.75C20 15.1642 19.6642 15.5 19.25 15.5H13.25C12.8358 15.5 12.5 15.1642 12.5 14.75C12.5 14.3358 12.8358 14 13.25 14ZM19.25 17H16.25C15.8358 17 15.5 17.3358 15.5 17.75C15.5 18.1642 15.8358 18.5 16.25 18.5H19.25C19.6642 18.5 20 18.1642 20 17.75C20 17.3358 19.6642 17 19.25 17Z"/>
</svg>
